<svg viewBox="0 0 800 500" preserveAspectRatio="none" xmlns="http://www.w3.org/2000/svg" xmlns:xlink="http://www.w3.org/1999/xlink" width="100%" id="blobSvg">
  <g transform="translate(-226, 96)">
    <defs>
      <linearGradient id="gradient" x1="0%" y1="0%" x2="0%" y2="100%">
        <stop offset="0%" style="stop-color: rgb(255, 95, 109);"></stop>
        <stop offset="100%" style="stop-color: rgb(255, 195, 113);"></stop>
      </linearGradient>
    </defs>
    <path class="blob" d="M441.5,338.5Q391,427,296.5,444Q202,461,124.5,404.5Q47,348,43,248Q39,148,121.5,98Q204,48,293.5,66Q383,84,437.5,167Q492,250,441.5,338.5Z" fill="url(#gradient)"></path>
  </g>
  <g transform="translate(-390, 175)">
    <defs>
      <linearGradient id="gradient" x1="0%" y1="0%" x2="0%" y2="100%">
        <stop offset="0%" style="stop-color: rgb(255, 95, 109);"></stop>
        <stop offset="100%" style="stop-color: rgb(255, 195, 113);"></stop>
      </linearGradient>
    </defs>
    <path class="blob" d="M441.5,338.5Q391,427,296.5,444Q202,461,124.5,404.5Q47,348,43,248Q39,148,121.5,98Q204,48,293.5,66Q383,84,437.5,167Q492,250,441.5,338.5Z" fill="url(#gradient)"></path>
  </g>
  <g transform="translate(374, -124)">
    <defs>
      <linearGradient id="gradient" x1="0%" y1="0%" x2="0%" y2="100%">
        <stop offset="0%" style="stop-color: rgb(255, 95, 109);"></stop>
        <stop offset="100%" style="stop-color: rgb(255, 195, 113);"></stop>
      </linearGradient>
    </defs>
    <path class="blob" d="M441.5,338.5Q391,427,296.5,444Q202,461,124.5,404.5Q47,348,43,248Q39,148,121.5,98Q204,48,293.5,66Q383,84,437.5,167Q492,250,441.5,338.5Z" fill="url(#gradient)"></path>
  </g>
</svg>